<svg width="320" height="320" viewBox="0 0 320 320" fill="none" xmlns="http://www.w3.org/2000/svg">
<g clip-path="url(#clip0_95_29148)">
<path d="M20 0H0V20H20V0Z" fill="white"/>
<path d="M40 0H20V20H40V0Z" fill="white"/>
<path d="M60 0H40V20H60V0Z" fill="black"/>
<path d="M80 0H60V20H80V0Z" fill="black"/>
<path d="M100 0H80V20H100V0Z" fill="white"/>
<path d="M120 0H100V20H120V0Z" fill="white"/>
<path d="M140 0H120V20H140V0Z" fill="black"/>
<path d="M160 0H140V20H160V0Z" fill="black"/>
<path d="M180 0H160V20H180V0Z" fill="white"/>
<path d="M200 0H180V20H200V0Z" fill="white"/>
<path d="M220 0H200V20H220V0Z" fill="black"/>
<path d="M240 0H220V20H240V0Z" fill="black"/>
<path d="M260 0H240V20H260V0Z" fill="white"/>
<path d="M280 0H260V20H280V0Z" fill="white"/>
<path d="M300 0H280V20H300V0Z" fill="black"/>
<path d="M320 0H300V20H320V0Z" fill="black"/>
<path d="M20 20H0V40H20V20Z" fill="white"/>
<path d="M40 20H20V40H40V20Z" fill="black"/>
<path d="M60 20H40V40H60V20Z" fill="white"/>
<path d="M80 20H60V40H80V20Z" fill="white"/>
<path d="M100 20H80V40H100V20Z" fill="white"/>
<path d="M120 20H100V40H120V20Z" fill="black"/>
<path d="M140 20H120V40H140V20Z" fill="white"/>
<path d="M160 20H140V40H160V20Z" fill="white"/>
<path d="M180 20H160V40H180V20Z" fill="white"/>
<path d="M200 20H180V40H200V20Z" fill="black"/>
<path d="M220 20H200V40H220V20Z" fill="white"/>
<path d="M240 20H220V40H240V20Z" fill="white"/>
<path d="M260 20H240V40H260V20Z" fill="white"/>
<path d="M280 20H260V40H280V20Z" fill="black"/>
<path d="M300 20H280V40H300V20Z" fill="white"/>
<path d="M320 20H300V40H320V20Z" fill="white"/>
<path d="M20 40H0V60H20V40Z" fill="black"/>
<path d="M40 40H20V60H40V40Z" fill="black"/>
<path d="M60 40H40V60H60V40Z" fill="white"/>
<path d="M80 40H60V60H80V40Z" fill="white"/>
<path d="M100 40H80V60H100V40Z" fill="black"/>
<path d="M120 40H100V60H120V40Z" fill="black"/>
<path d="M140 40H120V60H140V40Z" fill="white"/>
<path d="M160 40H140V60H160V40Z" fill="white"/>
<path d="M180 40H160V60H180V40Z" fill="black"/>
<path d="M200 40H180V60H200V40Z" fill="black"/>
<path d="M220 40H200V60H220V40Z" fill="white"/>
<path d="M240 40H220V60H240V40Z" fill="white"/>
<path d="M260 40H240V60H260V40Z" fill="black"/>
<path d="M280 40H260V60H280V40Z" fill="black"/>
<path d="M300 40H280V60H300V40Z" fill="white"/>
<path d="M320 40H300V60H320V40Z" fill="white"/>
<path d="M20 60H0V80H20V60Z" fill="black"/>
<path d="M40 60H20V80H40V60Z" fill="white"/>
<path d="M60 60H40V80H60V60Z" fill="white"/>
<path d="M80 60H60V80H80V60Z" fill="black"/>
<path d="M100 60H80V80H100V60Z" fill="black"/>
<path d="M120 60H100V80H120V60Z" fill="white"/>
<path d="M140 60H120V80H140V60Z" fill="white"/>
<path d="M160 60H140V80H160V60Z" fill="black"/>
<path d="M180 60H160V80H180V60Z" fill="black"/>
<path d="M200 60H180V80H200V60Z" fill="white"/>
<path d="M220 60H200V80H220V60Z" fill="white"/>
<path d="M240 60H220V80H240V60Z" fill="black"/>
<path d="M260 60H240V80H260V60Z" fill="black"/>
<path d="M280 60H260V80H280V60Z" fill="white"/>
<path d="M300 60H280V80H300V60Z" fill="white"/>
<path d="M320 60H300V80H320V60Z" fill="black"/>
<path d="M20 80H0V100H20V80Z" fill="white"/>
<path d="M40 80H20V100H40V80Z" fill="white"/>
<path d="M60 80H40V100H60V80Z" fill="black"/>
<path d="M80 80H60V100H80V80Z" fill="black"/>
<path d="M100 80H80V100H100V80Z" fill="white"/>
<path d="M120 80H100V100H120V80Z" fill="white"/>
<path d="M140 80H120V100H140V80Z" fill="black"/>
<path d="M160 80H140V100H160V80Z" fill="black"/>
<path d="M180 80H160V100H180V80Z" fill="white"/>
<path d="M200 80H180V100H200V80Z" fill="white"/>
<path d="M220 80H200V100H220V80Z" fill="black"/>
<path d="M240 80H220V100H240V80Z" fill="black"/>
<path d="M260 80H240V100H260V80Z" fill="white"/>
<path d="M280 80H260V100H280V80Z" fill="white"/>
<path d="M300 80H280V100H300V80Z" fill="black"/>
<path d="M320 80H300V100H320V80Z" fill="black"/>
<path d="M20 100H0V120H20V100Z" fill="white"/>
<path d="M40 100H20V120H40V100Z" fill="black"/>
<path d="M60 100H40V120H60V100Z" fill="white"/>
<path d="M80 100H60V120H80V100Z" fill="white"/>
<path d="M100 100H80V120H100V100Z" fill="white"/>
<path d="M120 100H100V120H120V100Z" fill="black"/>
<path d="M140 100H120V120H140V100Z" fill="white"/>
<path d="M160 100H140V120H160V100Z" fill="white"/>
<path d="M180 100H160V120H180V100Z" fill="white"/>
<path d="M200 100H180V120H200V100Z" fill="black"/>
<path d="M220 100H200V120H220V100Z" fill="white"/>
<path d="M240 100H220V120H240V100Z" fill="white"/>
<path d="M260 100H240V120H260V100Z" fill="white"/>
<path d="M280 100H260V120H280V100Z" fill="black"/>
<path d="M300 100H280V120H300V100Z" fill="white"/>
<path d="M320 100H300V120H320V100Z" fill="white"/>
<path d="M20 120H0V140H20V120Z" fill="black"/>
<path d="M40 120H20V140H40V120Z" fill="black"/>
<path d="M60 120H40V140H60V120Z" fill="white"/>
<path d="M80 120H60V140H80V120Z" fill="white"/>
<path d="M100 120H80V140H100V120Z" fill="black"/>
<path d="M120 120H100V140H120V120Z" fill="black"/>
<path d="M140 120H120V140H140V120Z" fill="white"/>
<path d="M160 120H140V140H160V120Z" fill="white"/>
<path d="M180 120H160V140H180V120Z" fill="black"/>
<path d="M200 120H180V140H200V120Z" fill="black"/>
<path d="M220 120H200V140H220V120Z" fill="white"/>
<path d="M240 120H220V140H240V120Z" fill="white"/>
<path d="M260 120H240V140H260V120Z" fill="black"/>
<path d="M280 120H260V140H280V120Z" fill="black"/>
<path d="M300 120H280V140H300V120Z" fill="white"/>
<path d="M320 120H300V140H320V120Z" fill="white"/>
<path d="M20 140H0V160H20V140Z" fill="black"/>
<path d="M40 140H20V160H40V140Z" fill="white"/>
<path d="M60 140H40V160H60V140Z" fill="white"/>
<path d="M80 140H60V160H80V140Z" fill="black"/>
<path d="M100 140H80V160H100V140Z" fill="black"/>
<path d="M120 140H100V160H120V140Z" fill="white"/>
<path d="M140 140H120V160H140V140Z" fill="white"/>
<path d="M160 140H140V160H160V140Z" fill="black"/>
<path d="M180 140H160V160H180V140Z" fill="black"/>
<path d="M200 140H180V160H200V140Z" fill="white"/>
<path d="M220 140H200V160H220V140Z" fill="white"/>
<path d="M240 140H220V160H240V140Z" fill="black"/>
<path d="M260 140H240V160H260V140Z" fill="black"/>
<path d="M280 140H260V160H280V140Z" fill="white"/>
<path d="M300 140H280V160H300V140Z" fill="white"/>
<path d="M320 140H300V160H320V140Z" fill="black"/>
<path d="M20 160H0V180H20V160Z" fill="white"/>
<path d="M40 160H20V180H40V160Z" fill="white"/>
<path d="M60 160H40V180H60V160Z" fill="black"/>
<path d="M80 160H60V180H80V160Z" fill="black"/>
<path d="M100 160H80V180H100V160Z" fill="white"/>
<path d="M120 160H100V180H120V160Z" fill="white"/>
<path d="M140 160H120V180H140V160Z" fill="black"/>
<path d="M160 160H140V180H160V160Z" fill="black"/>
<path d="M180 160H160V180H180V160Z" fill="white"/>
<path d="M200 160H180V180H200V160Z" fill="white"/>
<path d="M220 160H200V180H220V160Z" fill="black"/>
<path d="M240 160H220V180H240V160Z" fill="black"/>
<path d="M260 160H240V180H260V160Z" fill="white"/>
<path d="M280 160H260V180H280V160Z" fill="white"/>
<path d="M300 160H280V180H300V160Z" fill="black"/>
<path d="M320 160H300V180H320V160Z" fill="black"/>
<path d="M20 180H0V200H20V180Z" fill="white"/>
<path d="M40 180H20V200H40V180Z" fill="black"/>
<path d="M60 180H40V200H60V180Z" fill="white"/>
<path d="M80 180H60V200H80V180Z" fill="white"/>
<path d="M100 180H80V200H100V180Z" fill="white"/>
<path d="M120 180H100V200H120V180Z" fill="black"/>
<path d="M140 180H120V200H140V180Z" fill="white"/>
<path d="M160 180H140V200H160V180Z" fill="white"/>
<path d="M180 180H160V200H180V180Z" fill="white"/>
<path d="M200 180H180V200H200V180Z" fill="black"/>
<path d="M220 180H200V200H220V180Z" fill="white"/>
<path d="M240 180H220V200H240V180Z" fill="white"/>
<path d="M260 180H240V200H260V180Z" fill="white"/>
<path d="M280 180H260V200H280V180Z" fill="black"/>
<path d="M300 180H280V200H300V180Z" fill="white"/>
<path d="M320 180H300V200H320V180Z" fill="white"/>
<path d="M20 200H0V220H20V200Z" fill="black"/>
<path d="M40 200H20V220H40V200Z" fill="black"/>
<path d="M60 200H40V220H60V200Z" fill="white"/>
<path d="M80 200H60V220H80V200Z" fill="white"/>
<path d="M100 200H80V220H100V200Z" fill="black"/>
<path d="M120 200H100V220H120V200Z" fill="black"/>
<path d="M140 200H120V220H140V200Z" fill="white"/>
<path d="M160 200H140V220H160V200Z" fill="white"/>
<path d="M180 200H160V220H180V200Z" fill="black"/>
<path d="M200 200H180V220H200V200Z" fill="black"/>
<path d="M220 200H200V220H220V200Z" fill="white"/>
<path d="M240 200H220V220H240V200Z" fill="white"/>
<path d="M260 200H240V220H260V200Z" fill="black"/>
<path d="M280 200H260V220H280V200Z" fill="black"/>
<path d="M300 200H280V220H300V200Z" fill="white"/>
<path d="M320 200H300V220H320V200Z" fill="white"/>
<path d="M20 220H0V240H20V220Z" fill="black"/>
<path d="M40 220H20V240H40V220Z" fill="white"/>
<path d="M60 220H40V240H60V220Z" fill="white"/>
<path d="M80 220H60V240H80V220Z" fill="black"/>
<path d="M100 220H80V240H100V220Z" fill="black"/>
<path d="M120 220H100V240H120V220Z" fill="white"/>
<path d="M140 220H120V240H140V220Z" fill="white"/>
<path d="M160 220H140V240H160V220Z" fill="black"/>
<path d="M180 220H160V240H180V220Z" fill="black"/>
<path d="M200 220H180V240H200V220Z" fill="white"/>
<path d="M220 220H200V240H220V220Z" fill="white"/>
<path d="M240 220H220V240H240V220Z" fill="black"/>
<path d="M260 220H240V240H260V220Z" fill="black"/>
<path d="M280 220H260V240H280V220Z" fill="white"/>
<path d="M300 220H280V240H300V220Z" fill="white"/>
<path d="M320 220H300V240H320V220Z" fill="black"/>
<path d="M20 240H0V260H20V240Z" fill="white"/>
<path d="M40 240H20V260H40V240Z" fill="white"/>
<path d="M60 240H40V260H60V240Z" fill="black"/>
<path d="M80 240H60V260H80V240Z" fill="black"/>
<path d="M100 240H80V260H100V240Z" fill="white"/>
<path d="M120 240H100V260H120V240Z" fill="white"/>
<path d="M140 240H120V260H140V240Z" fill="black"/>
<path d="M160 240H140V260H160V240Z" fill="black"/>
<path d="M180 240H160V260H180V240Z" fill="white"/>
<path d="M200 240H180V260H200V240Z" fill="white"/>
<path d="M220 240H200V260H220V240Z" fill="black"/>
<path d="M240 240H220V260H240V240Z" fill="black"/>
<path d="M260 240H240V260H260V240Z" fill="white"/>
<path d="M280 240H260V260H280V240Z" fill="white"/>
<path d="M300 240H280V260H300V240Z" fill="black"/>
<path d="M320 240H300V260H320V240Z" fill="black"/>
<path d="M20 260H0V280H20V260Z" fill="white"/>
<path d="M40 260H20V280H40V260Z" fill="black"/>
<path d="M60 260H40V280H60V260Z" fill="white"/>
<path d="M80 260H60V280H80V260Z" fill="white"/>
<path d="M100 260H80V280H100V260Z" fill="white"/>
<path d="M120 260H100V280H120V260Z" fill="black"/>
<path d="M140 260H120V280H140V260Z" fill="white"/>
<path d="M160 260H140V280H160V260Z" fill="white"/>
<path d="M180 260H160V280H180V260Z" fill="white"/>
<path d="M200 260H180V280H200V260Z" fill="black"/>
<path d="M220 260H200V280H220V260Z" fill="white"/>
<path d="M240 260H220V280H240V260Z" fill="white"/>
<path d="M260 260H240V280H260V260Z" fill="white"/>
<path d="M280 260H260V280H280V260Z" fill="black"/>
<path d="M300 260H280V280H300V260Z" fill="white"/>
<path d="M320 260H300V280H320V260Z" fill="white"/>
<path d="M20 280H0V300H20V280Z" fill="black"/>
<path d="M40 280H20V300H40V280Z" fill="black"/>
<path d="M60 280H40V300H60V280Z" fill="white"/>
<path d="M80 280H60V300H80V280Z" fill="white"/>
<path d="M100 280H80V300H100V280Z" fill="black"/>
<path d="M120 280H100V300H120V280Z" fill="black"/>
<path d="M140 280H120V300H140V280Z" fill="white"/>
<path d="M160 280H140V300H160V280Z" fill="white"/>
<path d="M180 280H160V300H180V280Z" fill="black"/>
<path d="M200 280H180V300H200V280Z" fill="black"/>
<path d="M220 280H200V300H220V280Z" fill="white"/>
<path d="M240 280H220V300H240V280Z" fill="white"/>
<path d="M260 280H240V300H260V280Z" fill="black"/>
<path d="M280 280H260V300H280V280Z" fill="black"/>
<path d="M300 280H280V300H300V280Z" fill="white"/>
<path d="M320 280H300V300H320V280Z" fill="white"/>
<path d="M20 300H0V320H20V300Z" fill="black"/>
<path d="M40 300H20V320H40V300Z" fill="white"/>
<path d="M60 300H40V320H60V300Z" fill="white"/>
<path d="M80 300H60V320H80V300Z" fill="black"/>
<path d="M100 300H80V320H100V300Z" fill="black"/>
<path d="M120 300H100V320H120V300Z" fill="white"/>
<path d="M140 300H120V320H140V300Z" fill="white"/>
<path d="M160 300H140V320H160V300Z" fill="black"/>
<path d="M180 300H160V320H180V300Z" fill="black"/>
<path d="M200 300H180V320H200V300Z" fill="white"/>
<path d="M220 300H200V320H220V300Z" fill="white"/>
<path d="M240 300H220V320H240V300Z" fill="black"/>
<path d="M260 300H240V320H260V300Z" fill="black"/>
<path d="M280 300H260V320H280V300Z" fill="white"/>
<path d="M300 300H280V320H300V300Z" fill="white"/>
<path d="M320 300H300V320H320V300Z" fill="black"/>
</g>
<defs>
<clipPath id="clip0_95_29148">
<rect width="320" height="320" fill="white"/>
</clipPath>
</defs>
</svg>
